<svg width="96" height="97" viewBox="0 0 96 97" fill="none" xmlns="http://www.w3.org/2000/svg">
<path fill-rule="evenodd" clip-rule="evenodd" d="M33.66 33.65H44.07L47.35 42.39L56.56 40.86L61.77 49.88L55.84 57.09L61.77 64.3L56.56 73.32L47.35 71.79L44.07 80.53H33.66L30.38 71.79L21.17 73.32L15.96 64.3L21.89 57.09L15.96 49.88L21.17 40.86L30.38 42.39L33.66 33.65ZM38.87 65.87C43.72 65.87 47.66 61.94 47.66 57.08C47.66 52.22 43.73 48.29 38.87 48.29C34.01 48.29 30.08 52.22 30.08 57.08C30.08 61.94 34.01 65.87 38.87 65.87Z" fill="#1868DB"/>
<path fill-rule="evenodd" clip-rule="evenodd" d="M58.0798 16.76H66.2098L68.7698 23.58L75.9498 22.38L80.0098 29.42L75.3798 35.05L80.0098 40.67L75.9498 47.71L68.7698 46.52L66.2098 53.34H58.0798L55.5198 46.52L48.3398 47.71L44.2798 40.67L48.9098 35.05L44.2798 29.43L48.3398 22.39L55.5198 23.59L58.0798 16.77V16.76ZM62.1398 41.91C65.9298 41.91 68.9998 38.84 68.9998 35.05C68.9998 31.26 65.9298 28.19 62.1398 28.19C58.3498 28.19 55.2798 31.26 55.2798 35.05C55.2798 38.84 58.3498 41.91 62.1398 41.91Z" fill="#BF63F3"/>
<path fill-rule="evenodd" clip-rule="evenodd" d="M56.55 40.85L47.34 42.39L45.94 38.64L44.27 40.67L48.34 47.71L55.52 46.51L58.08 53.33H58.91L61.76 49.87L56.55 40.85Z" fill="#09326C"/>
<path fill-rule="evenodd" clip-rule="evenodd" d="M56.55 40.85L47.34 42.39L45.94 38.64L44.27 40.67L48.34 47.71L55.52 46.51L58.08 53.33H58.91L61.76 49.87L56.55 40.85Z" fill="#09326C"/>
</svg>
