<svg width="96" height="97" viewBox="0 0 96 97" fill="none" xmlns="http://www.w3.org/2000/svg">
<path d="M48.105 32.65V64.4H20.105V53.64C21.315 54.73 22.915 55.38 24.665 55.38C28.455 55.38 31.515 52.31 31.515 48.53C31.515 44.75 28.445 41.68 24.665 41.68C22.915 41.68 21.315 42.33 20.105 43.42V32.66H48.105V32.65Z" fill="#BF63F3"/>
<path d="M75.895 32.65H48.105V64.41H75.895V32.65Z" fill="#1868DB"/>
<path d="M52.6552 55.3801C56.4383 55.3801 59.5052 52.3132 59.5052 48.5301C59.5052 44.7469 56.4383 41.6801 52.6552 41.6801C48.872 41.6801 45.8052 44.7469 45.8052 48.5301C45.8052 52.3132 48.872 55.3801 52.6552 55.3801Z" fill="#BF63F3"/>
<path d="M34.1049 34.6501C37.888 34.6501 40.9549 31.5832 40.9549 27.8001C40.9549 24.0169 37.888 20.9501 34.1049 20.9501C30.3217 20.9501 27.2549 24.0169 27.2549 27.8001C27.2549 31.5832 30.3217 34.6501 34.1049 34.6501Z" fill="#BF63F3"/>
<path d="M61.995 76.11C65.7782 76.11 68.845 73.0432 68.845 69.26C68.845 65.4769 65.7782 62.41 61.995 62.41C58.2119 62.41 55.145 65.4769 55.145 69.26C55.145 73.0432 58.2119 76.11 61.995 76.11Z" fill="#1868DB"/>
</svg>
